# xmcd
#
# Track frame offsets:
# 150
# 30573
# 57366
# 72810
#
# Disc length: 1388 seconds
#
# Revision: 0
# Processed by: cddbd v1.5.1PL0 Copyright (c) Steve Scherf et al.
# Submitted via: Audion 3.0.2 (http://www.panic.com/audion/)
#
DISCID=2e056a04
DTITLE=ezra - citay
DYEAR=1900
DGENRE=
TTITLE0=citay may 05_1
TTITLE1=citay may 05_2
TTITLE2=citay may 05_3
TTITLE3=citay may 05_4
EXTD=
EXTT0=
EXTT1=
EXTT2=
EXTT3=
PLAYORDER=
